<svg width="88" height="40" viewBox="0 0 88 40" fill="none" xmlns="http://www.w3.org/2000/svg">
<path d="M33.4786 0C18.1743 1.50704 5.68786 6.22578 0 12.4376L3.15383 19.9715L3.16891 19.9784C3.18674 10.5159 16.0393 2.56184 33.4731 0.240738L33.4786 0Z" fill="#9AC31C"/>
<path d="M84.8227 19.98C84.8227 19.98 84.8227 19.9925 84.8227 19.9995C84.8227 29.4689 71.9633 37.4341 54.5186 39.7594V40.0002C69.8256 38.4931 82.3147 33.7716 87.9999 27.5583L84.8227 19.98Z" fill="#9AC31C"/>
<path d="M11.4551 25.731V11.7571L14.8832 10.2793V22.575H20.0486L21.3718 25.731H11.4551Z" fill="white"/>
<path d="M33.3945 25.731V14.3704H36.7047V15.9247C37.2161 14.7753 38.4146 14.1157 39.9476 14.1157C40.4771 14.1328 41.0047 14.1896 41.5259 14.2855L40.2781 17.2606C39.044 16.8084 36.7047 17.5737 36.7047 20.1829V25.7282L33.3945 25.731Z" fill="white"/>
<path d="M41.7588 20.0283C41.7588 18.2471 42.3361 16.8041 43.4701 15.7215C44.6027 14.618 46.0686 14.0767 47.8237 14.0767C49.5337 14.0767 50.9104 14.6333 51.9772 15.7465C53.044 16.8598 53.576 18.2054 53.576 19.8474C53.576 20.2301 53.5541 20.5919 53.5322 20.93H45.0689C45.1348 22.2812 46.2907 23.1565 48.0459 23.1565C48.5504 23.1635 49.0513 23.0695 49.52 22.8799C49.9887 22.6904 50.4159 22.4089 50.7774 22.0516L52.7094 23.9232C52.0925 24.5904 51.3452 25.1196 50.5152 25.4768C49.6853 25.8341 48.791 26.0116 47.8896 25.998C46.0466 25.998 44.5808 25.4581 43.4468 24.3978C42.3141 23.3165 41.7588 21.893 41.7588 20.1146V20.0283ZM50.244 18.7425C50.244 17.6835 49.1566 16.8486 47.8237 16.8486C46.3798 16.8486 45.2019 17.6835 45.1128 18.7425H50.244Z" fill="white"/>
<path d="M76.1595 15.7899C76.7477 16.325 77.2151 16.9828 77.5296 17.7182C77.8441 18.4536 77.9984 19.2493 77.9819 20.0508C77.9952 20.8543 77.8395 21.6514 77.5253 22.389C77.2111 23.1267 76.7454 23.7878 76.1595 24.3284C74.9546 25.4448 73.3819 26.0638 71.7503 26.0638C70.1187 26.0638 68.5461 25.4448 67.3411 24.3284C66.7618 23.7826 66.3023 23.1191 65.9923 22.3812C65.6823 21.6432 65.5289 20.8473 65.5421 20.0452C65.5267 19.2461 65.6792 18.4528 65.9894 17.7181C66.2996 16.9835 66.7604 16.3242 67.3411 15.7843C68.5629 14.6126 70.0287 14.0268 71.762 14.0268C72.5732 14.0128 73.3792 14.1614 74.1337 14.4639C74.8883 14.7664 75.5767 15.217 76.1595 15.7899ZM69.6955 22.1687C70.247 22.7182 70.9891 23.0261 71.762 23.0261C72.5349 23.0261 73.2769 22.7182 73.8284 22.1687C74.1003 21.8902 74.3147 21.5594 74.459 21.1957C74.6033 20.832 74.6747 20.4428 74.669 20.0508C74.6765 19.6614 74.6055 19.2745 74.4605 18.914C74.3155 18.5534 74.0995 18.2266 73.8257 17.9537C73.556 17.6753 73.2344 17.4541 72.8796 17.3031C72.5248 17.1522 72.1439 17.0744 71.7592 17.0744C71.3745 17.0744 70.9936 17.1522 70.6388 17.3031C70.2841 17.4541 69.9625 17.6753 69.6928 17.9537C69.4187 18.2264 69.2025 18.5531 69.0575 18.9138C68.9124 19.2744 68.8417 19.6613 68.8495 20.0508C68.8421 20.4435 68.9133 20.8337 69.0587 21.1977C69.2041 21.5617 69.4207 21.8921 69.6955 22.1687Z" fill="white"/>
<path d="M28.7447 14.3703C27.959 16.2141 26.7742 18.9986 26.1956 20.3943C26.1023 20.617 25.9885 20.8814 25.8555 21.1778L22.9567 14.3188L20.0771 15.5712L23.9262 24.6789C23.3459 25.5596 22.6667 26.3689 21.9023 27.0905L23.194 30.1379C26.1969 27.8335 28.1592 23.8829 29.0902 21.6272C29.8293 19.8614 31.5434 15.8273 32.1604 14.3703H28.7447Z" fill="white"/>
<path d="M61.0444 22.9814C59.4455 22.9814 58.1799 21.7416 58.1799 20.0286C58.1799 18.3156 59.4236 17.052 61.0444 17.052C62.0426 17.052 62.8846 17.4347 63.6168 18.2196L64.8413 15.3057C63.7606 14.4426 62.4194 13.9845 61.0444 14.0087C59.3125 14.0087 57.8467 14.596 56.6469 15.7454C55.469 16.8948 54.8643 18.3142 54.8643 20.0286C54.8643 21.7429 55.4635 23.1609 56.6469 24.3103C57.8467 25.4612 59.3125 26.0247 61.0444 26.0247C62.3959 26.0494 63.7157 25.6078 64.7878 24.7723L63.562 21.864C62.8462 22.6154 62.0193 22.9814 61.0444 22.9814Z" fill="white"/>
</svg>
